{
  "asset": { "version": "2.0" },
  "scenes": [{ "nodes": [0] }],
  "scene": 0,
  "nodes": [
    {
      "name": "Rubik's Cube",
      "children": [
        1,
        2,
        3,
        4,
        5,
        6,
        7,
        8,
        9,
        10,
        11,
        12,
        13,
        14,
        15,
        16,
        17,
        18,
        19,
        20,
        21,
        22,
        23,
        24,
        25,
        26
      ],
      "scale": [0.009416667, 0.009416667, 0.009416667]
    },
    { "mesh": 1, "translation": [-2, 2, 2] },
    { "mesh": 2, "translation": [0, 2, 2] },
    { "mesh": 3, "translation": [2, 2, 2] },
    { "mesh": 4, "translation": [-2, 0, 2] },
    { "mesh": 5, "translation": [0, 0, 2] },
    { "mesh": 6, "translation": [2, 0, 2] },
    { "mesh": 7, "translation": [-2, -2, 2] },
    { "mesh": 8, "translation": [0, -2, 2] },
    { "mesh": 9, "translation": [2, -2, 2] },
    { "mesh": 10, "translation": [2, 2, -2] },
    { "mesh": 11, "translation": [0, 2, -2] },
    { "mesh": 12, "translation": [-2, 2, -2] },
    { "mesh": 13, "translation": [2, 0, -2] },
    { "mesh": 14, "translation": [0, 0, -2] },
    { "mesh": 15, "translation": [-2, 0, -2] },
    { "mesh": 16, "translation": [2, -2, -2] },
    { "mesh": 17, "translation": [0, -2, -2] },
    { "mesh": 18, "translation": [-2, -2, -2] },
    { "mesh": 19, "translation": [2, 2, 0] },
    { "mesh": 20, "translation": [0, 2, 0] },
    { "mesh": 21, "translation": [-2, 2, 0] },
    { "mesh": 22, "translation": [2, -2, 0] },
    { "mesh": 23, "translation": [0, -2, 0] },
    { "mesh": 24, "translation": [-2, -2, 0] },
    { "mesh": 25, "translation": [2, 0, 0] },
    { "mesh": 26, "translation": [-2, 0, 0] }
  ],
  "meshes": [
    {
      "name": "base",
      "primitives": [
        { "attributes": { "POSITION": 0 }, "mode": 6, "material": 0 },
        { "attributes": { "POSITION": 1 }, "mode": 6, "material": 1 },
        { "attributes": { "POSITION": 2 }, "mode": 6, "material": 2 },
        { "attributes": { "POSITION": 3 }, "mode": 6, "material": 3 },
        { "attributes": { "POSITION": 4 }, "mode": 6, "material": 4 },
        { "attributes": { "POSITION": 5 }, "mode": 6, "material": 5 }
      ]
    },
    {
      "name": "front-up-left",
      "primitives": [
        { "attributes": { "POSITION": 0 }, "mode": 6, "material": 0 },
        { "attributes": { "POSITION": 1 }, "mode": 6, "material": 6 },
        { "attributes": { "POSITION": 2 }, "mode": 6, "material": 2 },
        { "attributes": { "POSITION": 3 }, "mode": 6, "material": 6 },
        { "attributes": { "POSITION": 4 }, "mode": 6, "material": 6 },
        { "attributes": { "POSITION": 5 }, "mode": 6, "material": 5 }
      ]
    },
    {
      "name": "front-up",
      "primitives": [
        { "attributes": { "POSITION": 0 }, "mode": 6, "material": 0 },
        { "attributes": { "POSITION": 1 }, "mode": 6, "material": 6 },
        { "attributes": { "POSITION": 2 }, "mode": 6, "material": 2 },
        { "attributes": { "POSITION": 3 }, "mode": 6, "material": 6 },
        { "attributes": { "POSITION": 4 }, "mode": 6, "material": 6 },
        { "attributes": { "POSITION": 5 }, "mode": 6, "material": 6 }
      ]
    },
    {
      "name": "front-up-right",
      "primitives": [
        { "attributes": { "POSITION": 0 }, "mode": 6, "material": 0 },
        { "attributes": { "POSITION": 1 }, "mode": 6, "material": 6 },
        { "attributes": { "POSITION": 2 }, "mode": 6, "material": 2 },
        { "attributes": { "POSITION": 3 }, "mode": 6, "material": 6 },
        { "attributes": { "POSITION": 4 }, "mode": 6, "material": 4 },
        { "attributes": { "POSITION": 5 }, "mode": 6, "material": 6 }
      ]
    },
    {
      "name": "front-left",
      "primitives": [
        { "attributes": { "POSITION": 0 }, "mode": 6, "material": 0 },
        { "attributes": { "POSITION": 1 }, "mode": 6, "material": 6 },
        { "attributes": { "POSITION": 2 }, "mode": 6, "material": 6 },
        { "attributes": { "POSITION": 3 }, "mode": 6, "material": 6 },
        { "attributes": { "POSITION": 4 }, "mode": 6, "material": 6 },
        { "attributes": { "POSITION": 5 }, "mode": 6, "material": 5 }
      ]
    },
    {
      "name": "front",
      "primitives": [
        { "attributes": { "POSITION": 0 }, "mode": 6, "material": 0 },
        { "attributes": { "POSITION": 1 }, "mode": 6, "material": 6 },
        { "attributes": { "POSITION": 2 }, "mode": 6, "material": 6 },
        { "attributes": { "POSITION": 3 }, "mode": 6, "material": 6 },
        { "attributes": { "POSITION": 4 }, "mode": 6, "material": 6 },
        { "attributes": { "POSITION": 5 }, "mode": 6, "material": 6 }
      ]
    },
    {
      "name": "front-right",
      "primitives": [
        { "attributes": { "POSITION": 0 }, "mode": 6, "material": 0 },
        { "attributes": { "POSITION": 1 }, "mode": 6, "material": 6 },
        { "attributes": { "POSITION": 2 }, "mode": 6, "material": 6 },
        { "attributes": { "POSITION": 3 }, "mode": 6, "material": 6 },
        { "attributes": { "POSITION": 4 }, "mode": 6, "material": 4 },
        { "attributes": { "POSITION": 5 }, "mode": 6, "material": 6 }
      ]
    },
    {
      "name": "front-down-left",
      "primitives": [
        { "attributes": { "POSITION": 0 }, "mode": 6, "material": 0 },
        { "attributes": { "POSITION": 1 }, "mode": 6, "material": 6 },
        { "attributes": { "POSITION": 2 }, "mode": 6, "material": 6 },
        { "attributes": { "POSITION": 3 }, "mode": 6, "material": 3 },
        { "attributes": { "POSITION": 4 }, "mode": 6, "material": 6 },
        { "attributes": { "POSITION": 5 }, "mode": 6, "material": 5 }
      ]
    },
    {
      "name": "front-down",
      "primitives": [
        { "attributes": { "POSITION": 0 }, "mode": 6, "material": 0 },
        { "attributes": { "POSITION": 1 }, "mode": 6, "material": 6 },
        { "attributes": { "POSITION": 2 }, "mode": 6, "material": 6 },
        { "attributes": { "POSITION": 3 }, "mode": 6, "material": 3 },
        { "attributes": { "POSITION": 4 }, "mode": 6, "material": 6 },
        { "attributes": { "POSITION": 5 }, "mode": 6, "material": 6 }
      ]
    },
    {
      "name": "front-down-right",
      "primitives": [
        { "attributes": { "POSITION": 0 }, "mode": 6, "material": 0 },
        { "attributes": { "POSITION": 1 }, "mode": 6, "material": 6 },
        { "attributes": { "POSITION": 2 }, "mode": 6, "material": 6 },
        { "attributes": { "POSITION": 3 }, "mode": 6, "material": 3 },
        { "attributes": { "POSITION": 4 }, "mode": 6, "material": 4 },
        { "attributes": { "POSITION": 5 }, "mode": 6, "material": 6 }
      ]
    },
    {
      "name": "back-up-right",
      "primitives": [
        { "attributes": { "POSITION": 0 }, "mode": 6, "material": 6 },
        { "attributes": { "POSITION": 1 }, "mode": 6, "material": 1 },
        { "attributes": { "POSITION": 2 }, "mode": 6, "material": 2 },
        { "attributes": { "POSITION": 3 }, "mode": 6, "material": 6 },
        { "attributes": { "POSITION": 4 }, "mode": 6, "material": 4 },
        { "attributes": { "POSITION": 5 }, "mode": 6, "material": 6 }
      ]
    },
    {
      "name": "back-up",
      "primitives": [
        { "attributes": { "POSITION": 0 }, "mode": 6, "material": 6 },
        { "attributes": { "POSITION": 1 }, "mode": 6, "material": 1 },
        { "attributes": { "POSITION": 2 }, "mode": 6, "material": 2 },
        { "attributes": { "POSITION": 3 }, "mode": 6, "material": 6 },
        { "attributes": { "POSITION": 4 }, "mode": 6, "material": 6 },
        { "attributes": { "POSITION": 5 }, "mode": 6, "material": 6 }
      ]
    },
    {
      "name": "back-up-left",
      "primitives": [
        { "attributes": { "POSITION": 0 }, "mode": 6, "material": 6 },
        { "attributes": { "POSITION": 1 }, "mode": 6, "material": 1 },
        { "attributes": { "POSITION": 2 }, "mode": 6, "material": 2 },
        { "attributes": { "POSITION": 3 }, "mode": 6, "material": 6 },
        { "attributes": { "POSITION": 4 }, "mode": 6, "material": 6 },
        { "attributes": { "POSITION": 5 }, "mode": 6, "material": 5 }
      ]
    },
    {
      "name": "back-right",
      "primitives": [
        { "attributes": { "POSITION": 0 }, "mode": 6, "material": 6 },
        { "attributes": { "POSITION": 1 }, "mode": 6, "material": 1 },
        { "attributes": { "POSITION": 2 }, "mode": 6, "material": 6 },
        { "attributes": { "POSITION": 3 }, "mode": 6, "material": 6 },
        { "attributes": { "POSITION": 4 }, "mode": 6, "material": 4 },
        { "attributes": { "POSITION": 5 }, "mode": 6, "material": 6 }
      ]
    },
    {
      "name": "back",
      "primitives": [
        { "attributes": { "POSITION": 0 }, "mode": 6, "material": 6 },
        { "attributes": { "POSITION": 1 }, "mode": 6, "material": 1 },
        { "attributes": { "POSITION": 2 }, "mode": 6, "material": 6 },
        { "attributes": { "POSITION": 3 }, "mode": 6, "material": 6 },
        { "attributes": { "POSITION": 4 }, "mode": 6, "material": 6 },
        { "attributes": { "POSITION": 5 }, "mode": 6, "material": 6 }
      ]
    },
    {
      "name": "back-left",
      "primitives": [
        { "attributes": { "POSITION": 0 }, "mode": 6, "material": 6 },
        { "attributes": { "POSITION": 1 }, "mode": 6, "material": 1 },
        { "attributes": { "POSITION": 2 }, "mode": 6, "material": 6 },
        { "attributes": { "POSITION": 3 }, "mode": 6, "material": 6 },
        { "attributes": { "POSITION": 4 }, "mode": 6, "material": 6 },
        { "attributes": { "POSITION": 5 }, "mode": 6, "material": 5 }
      ]
    },
    {
      "name": "back-down-right",
      "primitives": [
        { "attributes": { "POSITION": 0 }, "mode": 6, "material": 6 },
        { "attributes": { "POSITION": 1 }, "mode": 6, "material": 1 },
        { "attributes": { "POSITION": 2 }, "mode": 6, "material": 6 },
        { "attributes": { "POSITION": 3 }, "mode": 6, "material": 3 },
        { "attributes": { "POSITION": 4 }, "mode": 6, "material": 4 },
        { "attributes": { "POSITION": 5 }, "mode": 6, "material": 6 }
      ]
    },
    {
      "name": "back-down",
      "primitives": [
        { "attributes": { "POSITION": 0 }, "mode": 6, "material": 6 },
        { "attributes": { "POSITION": 1 }, "mode": 6, "material": 1 },
        { "attributes": { "POSITION": 2 }, "mode": 6, "material": 6 },
        { "attributes": { "POSITION": 3 }, "mode": 6, "material": 3 },
        { "attributes": { "POSITION": 4 }, "mode": 6, "material": 6 },
        { "attributes": { "POSITION": 5 }, "mode": 6, "material": 6 }
      ]
    },
    {
      "name": "back-down-left",
      "primitives": [
        { "attributes": { "POSITION": 0 }, "mode": 6, "material": 6 },
        { "attributes": { "POSITION": 1 }, "mode": 6, "material": 1 },
        { "attributes": { "POSITION": 2 }, "mode": 6, "material": 6 },
        { "attributes": { "POSITION": 3 }, "mode": 6, "material": 3 },
        { "attributes": { "POSITION": 4 }, "mode": 6, "material": 6 },
        { "attributes": { "POSITION": 5 }, "mode": 6, "material": 5 }
      ]
    },
    {
      "name": "up-right",
      "primitives": [
        { "attributes": { "POSITION": 0 }, "mode": 6, "material": 6 },
        { "attributes": { "POSITION": 1 }, "mode": 6, "material": 6 },
        { "attributes": { "POSITION": 2 }, "mode": 6, "material": 2 },
        { "attributes": { "POSITION": 3 }, "mode": 6, "material": 6 },
        { "attributes": { "POSITION": 4 }, "mode": 6, "material": 4 },
        { "attributes": { "POSITION": 5 }, "mode": 6, "material": 6 }
      ]
    },
    {
      "name": "up",
      "primitives": [
        { "attributes": { "POSITION": 0 }, "mode": 6, "material": 6 },
        { "attributes": { "POSITION": 1 }, "mode": 6, "material": 6 },
        { "attributes": { "POSITION": 2 }, "mode": 6, "material": 2 },
        { "attributes": { "POSITION": 3 }, "mode": 6, "material": 6 },
        { "attributes": { "POSITION": 4 }, "mode": 6, "material": 6 },
        { "attributes": { "POSITION": 5 }, "mode": 6, "material": 6 }
      ]
    },
    {
      "name": "up-left",
      "primitives": [
        { "attributes": { "POSITION": 0 }, "mode": 6, "material": 6 },
        { "attributes": { "POSITION": 1 }, "mode": 6, "material": 6 },
        { "attributes": { "POSITION": 2 }, "mode": 6, "material": 2 },
        { "attributes": { "POSITION": 3 }, "mode": 6, "material": 6 },
        { "attributes": { "POSITION": 4 }, "mode": 6, "material": 6 },
        { "attributes": { "POSITION": 5 }, "mode": 6, "material": 5 }
      ]
    },
    {
      "name": "down-right",
      "primitives": [
        { "attributes": { "POSITION": 0 }, "mode": 6, "material": 6 },
        { "attributes": { "POSITION": 1 }, "mode": 6, "material": 6 },
        { "attributes": { "POSITION": 2 }, "mode": 6, "material": 6 },
        { "attributes": { "POSITION": 3 }, "mode": 6, "material": 3 },
        { "attributes": { "POSITION": 4 }, "mode": 6, "material": 4 },
        { "attributes": { "POSITION": 5 }, "mode": 6, "material": 6 }
      ]
    },
    {
      "name": "down",
      "primitives": [
        { "attributes": { "POSITION": 0 }, "mode": 6, "material": 6 },
        { "attributes": { "POSITION": 1 }, "mode": 6, "material": 6 },
        { "attributes": { "POSITION": 2 }, "mode": 6, "material": 6 },
        { "attributes": { "POSITION": 3 }, "mode": 6, "material": 3 },
        { "attributes": { "POSITION": 4 }, "mode": 6, "material": 6 },
        { "attributes": { "POSITION": 5 }, "mode": 6, "material": 6 }
      ]
    },
    {
      "name": "down-left",
      "primitives": [
        { "attributes": { "POSITION": 0 }, "mode": 6, "material": 6 },
        { "attributes": { "POSITION": 1 }, "mode": 6, "material": 6 },
        { "attributes": { "POSITION": 2 }, "mode": 6, "material": 6 },
        { "attributes": { "POSITION": 3 }, "mode": 6, "material": 3 },
        { "attributes": { "POSITION": 4 }, "mode": 6, "material": 6 },
        { "attributes": { "POSITION": 5 }, "mode": 6, "material": 5 }
      ]
    },
    {
      "name": "right",
      "primitives": [
        { "attributes": { "POSITION": 0 }, "mode": 6, "material": 6 },
        { "attributes": { "POSITION": 1 }, "mode": 6, "material": 6 },
        { "attributes": { "POSITION": 2 }, "mode": 6, "material": 6 },
        { "attributes": { "POSITION": 3 }, "mode": 6, "material": 6 },
        { "attributes": { "POSITION": 4 }, "mode": 6, "material": 4 },
        { "attributes": { "POSITION": 5 }, "mode": 6, "material": 6 }
      ]
    },
    {
      "name": "left",
      "primitives": [
        { "attributes": { "POSITION": 0 }, "mode": 6, "material": 6 },
        { "attributes": { "POSITION": 1 }, "mode": 6, "material": 6 },
        { "attributes": { "POSITION": 2 }, "mode": 6, "material": 6 },
        { "attributes": { "POSITION": 3 }, "mode": 6, "material": 6 },
        { "attributes": { "POSITION": 4 }, "mode": 6, "material": 6 },
        { "attributes": { "POSITION": 5 }, "mode": 6, "material": 5 }
      ]
    }
  ],
  "buffers": [
    { "byteLength": 288, "uri": "cube_positions.bin" },
    { "byteLength": 60, "uri": "rotation.bin" }
  ],
  "bufferViews": [
    { "buffer": 0, "byteOffset": 0, "byteLength": 48 },
    { "buffer": 0, "byteOffset": 48, "byteLength": 48 },
    { "buffer": 0, "byteOffset": 96, "byteLength": 48 },
    { "buffer": 0, "byteOffset": 144, "byteLength": 48 },
    { "buffer": 0, "byteOffset": 192, "byteLength": 48 },
    { "buffer": 0, "byteOffset": 240, "byteLength": 48 },
    { "buffer": 1, "byteOffset": 0, "byteLength": 12 },
    { "buffer": 1, "byteOffset": 12, "byteLength": 48 }
  ],
  "accessors": [
    {
      "bufferView": 0,
      "componentType": 5126,
      "type": "VEC3",
      "count": 4,
      "min": [-1, -1, 1],
      "max": [1, 1, 1]
    },
    {
      "bufferView": 1,
      "componentType": 5126,
      "type": "VEC3",
      "count": 4,
      "min": [-1, -1, -1],
      "max": [1, 1, -1]
    },
    {
      "bufferView": 2,
      "componentType": 5126,
      "type": "VEC3",
      "count": 4,
      "min": [-1, 1, -1],
      "max": [1, 1, 1]
    },
    {
      "bufferView": 3,
      "componentType": 5126,
      "type": "VEC3",
      "count": 4,
      "min": [-1, -1, -1],
      "max": [1, -1, 1]
    },
    {
      "bufferView": 4,
      "componentType": 5126,
      "type": "VEC3",
      "count": 4,
      "min": [1, -1, -1],
      "max": [1, 1, 1]
    },
    {
      "bufferView": 5,
      "componentType": 5126,
      "type": "VEC3",
      "count": 4,
      "min": [-1, -1, -1],
      "max": [-1, 1, 1]
    },
    {
      "bufferView": 6,
      "componentType": 5126,
      "type": "SCALAR",
      "count": 3,
      "min": [0],
      "max": [1]
    },
    {
      "bufferView": 7,
      "componentType": 5126,
      "type": "VEC4",
      "count": 3,
      "min": [0, 0, 0, 0],
      "max": [0, 0, 1, 1]
    }
  ],
  "materials": [
    { "pbrMetallicRoughness": { "baseColorFactor": [1, 1, 1, 1] } },
    { "pbrMetallicRoughness": { "baseColorFactor": [1, 1, 0, 1] } },
    { "pbrMetallicRoughness": { "baseColorFactor": [0, 0, 1, 1] } },
    { "pbrMetallicRoughness": { "baseColorFactor": [0, 1, 0, 1] } },
    { "pbrMetallicRoughness": { "baseColorFactor": [1, 0, 0, 1] } },
    { "pbrMetallicRoughness": { "baseColorFactor": [0.8, 0.5, 0, 1] } },
    { "pbrMetallicRoughness": { "baseColorFactor": [0, 0, 0, 1] } }
  ],
  "animations": [
    {
      "name": "F",
      "channels": [
        { "sampler": 0, "target": { "node": 1, "path": "rotation" } }
      ],
      "samplers": [{ "input": 6, "output": 7 }]
    }
  ]
}
